<svg viewBox="0 0 100 100" fill="none" xmlns="http://www.w3.org/2000/svg"><path d="M100 .021H0v99.977h100V.021z" fill="#FF005B"/><path d="M71.745 52.046c-1.638 0-3.017 1.38-3.017 3.017s1.293 2.93 3.017 2.93a2.907 2.907 0 0 0 2.93-2.93c.087-1.638-1.292-3.017-2.93-3.017zm0 9.222c-3.448 0-6.293-2.758-6.293-6.205 0-3.448 2.845-6.206 6.293-6.206a6.18 6.18 0 0 1 6.207 6.206c.086 3.447-2.759 6.205-6.207 6.205zM49.279 77.417h-3.276V66.213h3.276v11.204zM54.02 77.417h-3.276V66.213h3.276v11.204zM64.338 28.112l3.19-3.19-2.327-2.326-3.19 3.189-2.328 2.327 4.138 4.137-3.19 3.189 2.328 2.327 5.517-5.516-4.138-4.137zM28.028 55.036l1.552 2.671h-3.104l1.552-2.671zm0-6.206l-6.896 11.894h13.793L28.028 48.83zM42.406 26.13l-2.327-2.327-3.966 3.964-3.965-3.964-2.328 2.327 3.966 3.964-3.966 3.965 2.328 2.327 3.965-3.965 3.966 3.965 2.327-2.327-3.965-3.965 3.965-3.964z" fill="#F6FAFF"/></svg>